<svg xmlns="http://www.w3.org/2000/svg" viewBox="50 410 1000 230"><defs><style>.c{fill:#687e56}</style></defs><path class="c" d="M269.16,477q18.76,0,31.15,9.26A58.51,58.51,0,0,1,319,509.45a76,76,0,0,1,0,60.36A58.48,58.48,0,0,1,300.31,593q-12.39,9.25-31.15,9.26-18.51,0-31-9.26a57.84,57.84,0,0,1-18.76-23.2,71.59,71.59,0,0,1-6.14-30.18,75.51,75.51,0,0,1,6.26-30.18,57,57,0,0,1,18.64-23.21Q250.65,477,269.16,477Zm0,121.92q14.19,0,23.57-8.77a54.45,54.45,0,0,0,14.07-22,82.92,82.92,0,0,0,4.57-28.61,89.16,89.16,0,0,0-4.69-28.62,53,53,0,0,0-14.07-22q-9.5-8.79-23.45-8.78t-23.32,8.78a54.59,54.59,0,0,0-14.07,22A87,87,0,0,0,227,539.51a81.09,81.09,0,0,0,4.69,28.61,55.64,55.64,0,0,0,14.19,22Q255.22,598.91,269.16,598.9Z"/><path class="c" d="M337.7,583.27a60.92,60.92,0,0,0,18,12.51,53.65,53.65,0,0,0,21.64,4.09q11.3,0,18.52-4.45a28.26,28.26,0,0,0,10.58-10.94A23.51,23.51,0,0,0,409.12,571a20.67,20.67,0,0,0-5.29-12,38.74,38.74,0,0,0-10.58-8.17,113.37,113.37,0,0,0-13.11-6q-6.86-2.65-13.58-5a129.6,129.6,0,0,1-12.27-5q-8.66-4.1-12.5-11.43a29.17,29.17,0,0,1-3.49-15.15,32,32,0,0,1,4.57-14.91,28.18,28.18,0,0,1,11.91-10.94,44.11,44.11,0,0,1,20-4.33,53.58,53.58,0,0,1,18.76,3.49,42.41,42.41,0,0,1,16.35,10.94l-1.92,1.93a52.21,52.21,0,0,0-15.15-10.7q-7.45-3.25-18-3.25A28.52,28.52,0,0,0,358,485.28a24,24,0,0,0-9.5,11.9q-2.4,7,1.33,14.43t16,12.27q10.82,4.08,19.72,7.57A141.23,141.23,0,0,1,401.91,539q9.85,5.28,13.71,13.58A35,35,0,0,1,419,569.45a36.11,36.11,0,0,1-4.81,16.11A29.14,29.14,0,0,1,402.87,597a51.27,51.27,0,0,1-24.53,5.77A64.25,64.25,0,0,1,355,598.3a52.69,52.69,0,0,1-19.72-13.1Z"/><path class="c" d="M422.59,480.11h17.07V423.84l0-4.09v-1.93h14v62.29h32.23v3.61H453.61v89.45q-.24,8.18,1.68,13.35a19.09,19.09,0,0,0,5.3,8.05q4.8,4.09,12.26,4.09,10.11,0,21.4-7.21l1.92,2.4a58.38,58.38,0,0,1-14.54,6.62,45.84,45.84,0,0,1-11.91,1.8q-15.15,0-22.6-8.9t-7.46-24v-85.6H422.59Z"/><path class="c" d="M520.22,547.44a70.1,70.1,0,0,1,12.87-6q6.85-2.4,13.95-4.57t13.58-4.33A47.9,47.9,0,0,0,572.17,527a26,26,0,0,0,8.05-8.42,24.08,24.08,0,0,0,3-12.5h.24q-1.68-13.21-9.74-19.48a28.83,28.83,0,0,0-18.15-6.25,37.52,37.52,0,0,0-11.67,1.92A37.09,37.09,0,0,0,533,488a45.35,45.35,0,0,0-9,9.26,37.51,37.51,0,0,0-5.89,12.63l-3.85-.72A41.34,41.34,0,0,1,521,494.66a46.12,46.12,0,0,1,10.34-10.22,40.68,40.68,0,0,1,12.62-6,50.21,50.21,0,0,1,13.59-1.92,48.89,48.89,0,0,1,14.91,2.29,37.66,37.66,0,0,1,12.74,6.85,35.27,35.27,0,0,1,8.9,11.06,32,32,0,0,1,3.37,14.91v87.53h-3.61L584,579.67a42.25,42.25,0,0,1-18.28,16.83,55.54,55.54,0,0,1-24.76,5.77,49.54,49.54,0,0,1-12-1.44q-10.33-2.66-16.11-9.38a28.17,28.17,0,0,1-6.85-14.79,29.87,29.87,0,0,1,2.4-16.11A28.33,28.33,0,0,1,520.22,547.44Zm14.68,46.41a22.73,22.73,0,0,0,6,2,34.28,34.28,0,0,0,6.49.6,38.6,38.6,0,0,0,12.75-2.17,40.15,40.15,0,0,0,11.3-6,37.74,37.74,0,0,0,8.41-8.78,21.43,21.43,0,0,0,3.85-10.22V518.58a25.56,25.56,0,0,1-10.82,12,86.91,86.91,0,0,1-15.51,6.85q-8.29,2.77-16.6,5.89a36.18,36.18,0,0,0-14.06,9.38,22.56,22.56,0,0,0-5.17,10.34,30.1,30.1,0,0,0-.24,12,27.88,27.88,0,0,0,4.57,11.06A22.48,22.48,0,0,0,534.9,593.85Z"/><path class="c" d="M819.37,450.77a41.73,41.73,0,0,0-8.42-8.42,53.38,53.38,0,0,0-10.57-6.13,56.91,56.91,0,0,0-12.15-3.73,68.13,68.13,0,0,0-12.62-1.2,58.23,58.23,0,0,0-16.72,2.41,34.87,34.87,0,0,0-13.82,7.69,32,32,0,0,0-8.66,12.27,24.17,24.17,0,0,0-1.32,12.74,27.76,27.76,0,0,0,5.41,12,42,42,0,0,0,11.06,10.11,115.55,115.55,0,0,0,14.19,7.09q8.18,3.48,17.19,7.57T800.73,512a80.14,80.14,0,0,1,15.76,10.94,53.26,53.26,0,0,1,11.3,14.19,37.53,37.53,0,0,1,4.33,18.28,45.2,45.2,0,0,1-4.45,20.44,44.48,44.48,0,0,1-11.91,14.91,52.68,52.68,0,0,1-17.31,9.14A68.09,68.09,0,0,1,777.77,603a81.5,81.5,0,0,1-61.32-28.37l2.88-2.41a69,69,0,0,0,26.46,19,84.11,84.11,0,0,0,32,6.25,56.15,56.15,0,0,0,15.63-3.13,39,39,0,0,0,13.11-7.69,35.66,35.66,0,0,0,8.9-12.51,37.62,37.62,0,0,0,2.76-17.07,24.51,24.51,0,0,0-4.33-13.23,48.31,48.31,0,0,0-10.46-10.94,90.44,90.44,0,0,0-14.43-9q-8.06-4.1-16.23-7.58t-15.87-6.61q-7.7-3.12-13.23-6a46.35,46.35,0,0,1-16.47-14.18,35.52,35.52,0,0,1-6.61-20.44,37.08,37.08,0,0,1,4.57-18.64,42.09,42.09,0,0,1,12-13.47,53,53,0,0,1,16.71-8.05,68.17,68.17,0,0,1,18.88-2.65,71.35,71.35,0,0,1,27.53,5.53,50.67,50.67,0,0,1,21.53,16.36Z"/><path class="c" d="M897.53,477q18.75,0,31.14,9.26a58.4,58.4,0,0,1,18.63,23.21,76,76,0,0,1,0,60.36A58.37,58.37,0,0,1,928.67,593q-12.39,9.25-31.14,9.26-18.53,0-31-9.26a58.09,58.09,0,0,1-18.76-23.2,71.43,71.43,0,0,1-6.12-30.18,75.33,75.33,0,0,1,6.25-30.18,57,57,0,0,1,18.63-23.21Q879,477,897.53,477Zm0,121.92q14.18,0,23.56-8.77a54.45,54.45,0,0,0,14.07-22,83.16,83.16,0,0,0,4.57-28.61A89.43,89.43,0,0,0,935,510.89a53,53,0,0,0-14.07-22q-9.5-8.79-23.44-8.78t-23.33,8.78a54.59,54.59,0,0,0-14.07,22,87.3,87.3,0,0,0-4.81,28.62A81.09,81.09,0,0,0,860,568.12a55.64,55.64,0,0,0,14.19,22Q883.58,598.91,897.53,598.9Z"/><path class="c" d="M90.25,498.4s40.59-14.19,84.89,34.19v2.47s-42.44-48.52-84.89-27.59Z"/><path class="c" d="M990.31,483.72v89.45q-.24,8.18,1.69,13.35a19,19,0,0,0,5.29,8.05q4.8,4.09,12.26,4.09,10.11,0,21.41-7.21l1.92,2.4a58.43,58.43,0,0,1-14.55,6.62,45.84,45.84,0,0,1-11.91,1.8q-15.13,0-22.6-8.9t-7.46-24v-85.6m0,0V423.84l0-4.09v-1.93h14v65.9"/><path class="c" d="M638.44,484.08v89.45c-.16,5.45.4,9.91,1.68,13.35a19.19,19.19,0,0,0,5.3,8.06q4.8,4.08,12.26,4.08,10.11,0,21.4-7.21l1.93,2.4a58.43,58.43,0,0,1-14.55,6.62,45.84,45.84,0,0,1-11.91,1.8q-15.13,0-22.6-8.9t-7.46-24V484.08m0,0V424.2l0-4.09v-1.92h14v65.89"/><polygon class="c" points="90.25 506.08 90.25 503.4 90.25 429.85 75.11 429.85 75.11 432.01 75.1 436.1 75.1 599.14 90.25 599.14 90.25 526.59 90.25 510.65 90.25 506.08"/><polygon class="c" points="175.14 429.85 175.14 503.4 175.14 506.08 175.14 510.65 175.14 526.59 175.14 599.14 190.29 599.14 190.29 429.85 175.14 429.85"/></svg>